<mxfile host="65bd71144e">
    <diagram id="PVITWWYAqbWCId8xJ8cD" name="第 1 页">
        <mxGraphModel dx="1212" dy="513" grid="0" gridSize="10" guides="1" tooltips="1" connect="1" arrows="1" fold="1" page="1" pageScale="1" pageWidth="827" pageHeight="1169" math="0" shadow="0">
            <root>
                <mxCell id="0"/>
                <mxCell id="1" parent="0"/>
                <mxCell id="2" value="" style="rounded=1;whiteSpace=wrap;html=1;fillColor=default;" parent="1" vertex="1">
                    <mxGeometry x="194.7" y="293" width="491.3" height="195" as="geometry"/>
                </mxCell>
                <mxCell id="10" value="接收物理端传入数据" style="shape=singleArrow;whiteSpace=wrap;html=1;" parent="1" vertex="1">
                    <mxGeometry x="51.7" y="307" width="143" height="74" as="geometry"/>
                </mxCell>
                <mxCell id="11" value="&lt;font style=&quot;font-size: 18px;&quot;&gt;&lt;b&gt;后端处理模块&lt;/b&gt;&lt;/font&gt;" style="text;strokeColor=none;align=center;fillColor=none;html=1;verticalAlign=middle;whiteSpace=wrap;rounded=0;" parent="1" vertex="1">
                    <mxGeometry x="383.3319892473118" y="227.45454545454547" width="112.62096774193549" height="45.409090909090914" as="geometry"/>
                </mxCell>
                <mxCell id="14" value="与数据库交互" style="shape=singleArrow;whiteSpace=wrap;html=1;" vertex="1" parent="1">
                    <mxGeometry x="667.12" y="351.07" width="107.01" height="74" as="geometry"/>
                </mxCell>
                <mxCell id="26" value="接收客户端数据" style="shape=singleArrow;whiteSpace=wrap;html=1;" vertex="1" parent="1">
                    <mxGeometry x="50" y="386" width="143" height="74" as="geometry"/>
                </mxCell>
                <mxCell id="30" value="" style="group" vertex="1" connectable="0" parent="1">
                    <mxGeometry x="221" y="362" width="446.12" height="52.14" as="geometry"/>
                </mxCell>
                <mxCell id="22" value="" style="edgeStyle=none;shape=flexArrow;html=1;" edge="1" parent="30" source="23">
                    <mxGeometry relative="1" as="geometry">
                        <mxPoint x="173.44629294755876" y="26.91096774193552" as="targetPoint"/>
                    </mxGeometry>
                </mxCell>
                <mxCell id="23" value="数据存储与数据库交互" style="rounded=0;whiteSpace=wrap;html=1;" vertex="1" parent="30">
                    <mxGeometry y="1.6819354838709735" width="96.80723327305606" height="50.45806451612904" as="geometry"/>
                </mxCell>
                <mxCell id="24" value="mysql数据存储" style="rounded=0;whiteSpace=wrap;html=1;" vertex="1" parent="30">
                    <mxGeometry x="173.44629294755876" width="96.80723327305606" height="50.45806451612904" as="geometry"/>
                </mxCell>
                <mxCell id="25" value="RabbitMQ消息队列与异步处理" style="rounded=0;whiteSpace=wrap;html=1;" vertex="1" parent="30">
                    <mxGeometry x="349.31276672694395" width="96.80723327305606" height="50.45806451612904" as="geometry"/>
                </mxCell>
                <mxCell id="27" value="" style="edgeStyle=none;shape=flexArrow;html=1;" edge="1" parent="30">
                    <mxGeometry relative="1" as="geometry">
                        <mxPoint x="346.8925858951177" y="26.608219354838678" as="targetPoint"/>
                        <mxPoint x="270.2535262206148" y="26.60821935483879" as="sourcePoint"/>
                    </mxGeometry>
                </mxCell>
            </root>
        </mxGraphModel>
    </diagram>
</mxfile>